<?xml version="1.0" encoding="utf-8"?>
<svg xmlns="http://www.w3.org/2000/svg" viewBox="392.5 380.5 522 411">
<defs>
<mask id="cutoutMask">
<rect x="392.5" y="380.5" width="522" height="411" fill="white" />
  <path d="M0 0 C3.59721356 1.4954708 5.63097221 3.52706308 8.1875 6.4375 C8.96996094 7.32824219 9.75242187 8.21898437 10.55859375 9.13671875 C13.75433228 12.8846809 16.88580535 16.67997265 19.98046875 20.51171875 C21.64286841 22.5599752 23.33846702 24.56650689 25.0625 26.5625 C27 29 27 29 27 31 C21.06 30.34 15.12 29.68 9 29 C7.71691918 25.03110517 6.43471441 21.06195009 5.15478516 17.09204102 C4.71878485 15.74063515 4.2822626 14.38939756 3.84521484 13.03833008 C3.21836377 11.10020889 2.59337093 9.16149714 1.96875 7.22265625 C1.59169922 6.05484619 1.21464844 4.88703613 0.82617188 3.68383789 C0 1 0 1 0 0 Z  M0 0 C4.20626034 1.50223584 5.73900021 4.28550034 8 8 C5.525 7.01 5.525 7.01 3 6 C2.67 6.66 2.34 7.32 2 8 C1.34 5.36 0.68 2.72 0 0 Z " fill="black" transform="translate(581,627)" />
  <path d="M0 0 C-3.13907698 3.56748699 -6.53380349 5.47556832 -10.8125 7.375 C-11.46831055 7.67245117 -12.12412109 7.96990234 -12.79980469 8.27636719 C-41.43234855 21.12482869 -41.43234855 21.12482869 -49 19 C-44.13457442 12.17574062 -40.24956991 9.75075763 -32.0625 8.375 C-30.1974399 8.00228288 -28.33414115 7.6206497 -26.47265625 7.23046875 C-25.55242676 7.03759277 -24.63219727 6.8447168 -23.68408203 6.64599609 C-18.97094787 5.51165436 -14.52828702 3.74342227 -10.06274414 1.87841797 C-6.5579157 0.4443885 -3.79580316 -0.30912791 0 0 Z  M0 0 C-3.3364345 3.82883451 -6.91476271 5.7213419 -11.4375 7.8125 C-12.42073242 8.29879883 -12.42073242 8.29879883 -13.42382812 8.79492188 C-17.35486679 10.63624089 -19.83397463 11.39386643 -24 10 C-24.33 10 -24.66 10 -25 10 C-25.99 9.34 -26.98 8.68 -28 8 C-27.01 7.67386719 -26.02 7.34773437 -25 7.01171875 C-23.66658257 6.57056659 -22.33325503 6.12914269 -21 5.6875 C-20.31244629 5.4603833 -19.62489258 5.2332666 -18.91650391 4.99926758 C-15.36157681 3.8169538 -11.85284351 2.58400859 -8.375 1.1875 C-5.29320404 0.10316439 -3.22256398 -0.30211537 0 0 Z  M0 0 C-1 1.5 -1 1.5 -3 3 C-5.71846235 3.27345479 -8.25677199 3.13491285 -11 3 C-7.11595442 0.41063628 -4.5725325 -0.12358196 0 0 Z " fill="black" transform="translate(568,522)" />
  <path d="M0 0 C-1.38522094 4.15566281 -4.17752547 5.0013858 -7.875 6.875 C-8.55828369 7.22723633 -9.24156738 7.57947266 -9.94555664 7.94238281 C-11.95837403 8.97251476 -13.97875714 9.98653175 -16 11 C-16.95003906 11.49242187 -17.90007813 11.98484375 -18.87890625 12.4921875 C-24.20771524 15.11184627 -29.57895935 16.84628174 -35.3125 18.3125 C-36.3178479 18.57015137 -36.3178479 18.57015137 -37.34350586 18.83300781 C-41.30299008 19.77929343 -44.93469958 20.17017537 -49 20 C-46.45824513 16.98070663 -43.75886286 15.9103199 -40.109375 14.51171875 C-38.93109131 14.05514893 -37.75280762 13.5985791 -36.53881836 13.12817383 C-35.2759604 12.64773494 -34.01301952 12.16751398 -32.75 11.6875 C-31.47178741 11.19568245 -30.19387394 10.70308678 -28.91625977 10.2097168 C-26.41078633 9.24241262 -23.90426763 8.27802539 -21.39697266 7.31542969 C-16.09596303 5.26268857 -10.84143961 3.10117977 -5.58984375 0.92578125 C-3 0 -3 0 0 0 Z  M0 0 C-1 3 -1 3 -3.28515625 4.38671875 C-4.20167969 4.81597656 -5.11820313 5.24523437 -6.0625 5.6875 C-6.98160156 6.12449219 -7.90070312 6.56148437 -8.84765625 7.01171875 C-9.55792969 7.33785156 -10.26820313 7.66398438 -11 8 C-11 7.01 -11 6.02 -11 5 C-11.66 4.67 -12.32 4.34 -13 4 C-11.39850114 3.32694982 -9.79368971 2.66177773 -8.1875 2 C-7.29417969 1.62875 -6.40085937 1.2575 -5.48046875 0.875 C-3 0 -3 0 0 0 Z " fill="black" transform="translate(577,532)" />
  <path d="M0 0 C22.01461378 1.50730689 22.01461378 1.50730689 27 4 C28.57321406 4.09603818 30.15042116 4.13074601 31.7265625 4.1328125 C32.67660156 4.13410156 33.62664063 4.13539063 34.60546875 4.13671875 C35.60191406 4.13285156 36.59835937 4.12898437 37.625 4.125 C39.08486328 4.13080078 39.08486328 4.13080078 40.57421875 4.13671875 C46.14374297 4.12922276 51.49118255 3.82435986 57 3 C56.67 3.99 56.34 4.98 56 6 C54.98679687 6.09087891 54.98679687 6.09087891 53.953125 6.18359375 C52.61507812 6.30927734 52.61507812 6.30927734 51.25 6.4375 C50.36828125 6.51871094 49.4865625 6.59992187 48.578125 6.68359375 C46.09022957 6.93130987 46.09022957 6.93130987 44.0769043 7.50048828 C30.44034043 10.78018849 14.66833689 7.31699662 2 2 C1.34 1.34 0.68 0.68 0 0 Z  M0 0 C1.91697937 0.14166357 3.83357723 0.28849584 5.75 0.4375 C7.35101562 0.55931641 7.35101562 0.55931641 8.984375 0.68359375 C11.43679962 0.94090773 13.63921291 1.31812218 16 2 C16 2.66 16 3.32 16 4 C18.64 4 21.28 4 24 4 C23.67 4.66 23.34 5.32 23 6 C17.3333235 6.29785422 12.91174271 5.31081409 7.5625 3.5 C6.83095703 3.26152344 6.09941406 3.02304687 5.34570312 2.77734375 C3.5607884 2.19403828 1.77994443 1.59830065 0 1 C0 0.67 0 0.34 0 0 Z  M0 0 C3.96 0.33 7.92 0.66 12 1 C7.64487894 3.17756053 6.52965335 3.1816487 2 2 C1.34 1.34 0.68 0.68 0 0 Z " fill="black" transform="translate(795,690)" />
  <path d="M0 0 C-28.67181009 16 -28.67181009 16 -38 16 C-36.92598892 13.08482708 -36.22189824 11.22189824 -34 9 C-32.1881833 8.35292261 -30.34881457 7.7822345 -28.5 7.25 C-24.37953008 6.03782596 -20.30057975 4.77792703 -16.2421875 3.37109375 C-15.43587891 3.09297852 -14.62957031 2.81486328 -13.79882812 2.52832031 C-12.19879619 1.97327297 -10.60106265 1.41154954 -9.00585938 0.84277344 C-3.33184716 -1.11061572 -3.33184716 -1.11061572 0 0 Z " fill="black" transform="translate(572,504)" />
  <path d="M0 0 C2 3 2 3 1.75 5.5625 C1 8 1 8 -1 10 C-4.13704316 10.333728 -6.16554166 10.52849028 -8.875 8.8125 C-10.40659584 6.34492892 -10.42822025 4.85480169 -10 2 C-7.59684073 -2.24086929 -4.21511384 -1.07293807 0 0 Z " fill="black" transform="translate(676,413)" />
  <path d="M0 0 C1.94140508 0.00503291 3.88281144 0.0095926 5.82421875 0.01367188 C10.50784521 0.0245175 15.1914077 0.04167976 19.875 0.0625 C19.875 0.3925 19.875 0.7225 19.875 1.0625 C18.6789917 1.08231934 17.4829834 1.10213867 16.25073242 1.12255859 C11.81692306 1.19858272 7.38344326 1.28730497 2.94995117 1.37988281 C1.03042096 1.41818577 -0.88918135 1.45303633 -2.80883789 1.484375 C-5.5668313 1.52999702 -8.32432777 1.5879958 -11.08203125 1.6484375 C-12.37123222 1.66576431 -12.37123222 1.66576431 -13.68647766 1.68344116 C-14.48708115 1.70331085 -15.28768463 1.72318054 -16.11254883 1.74365234 C-16.8164827 1.75697601 -17.52041656 1.77029968 -18.24568176 1.7840271 C-20.45597464 1.97494185 -20.45597464 1.97494185 -23.125 4.0625 C-25.02612305 4.19775391 -25.02612305 4.19775391 -27.13671875 4.0390625 C-27.89404297 3.9875 -28.65136719 3.9359375 -29.43164062 3.8828125 C-30.61016602 3.78613281 -30.61016602 3.78613281 -31.8125 3.6875 C-32.60978516 3.63078125 -33.40707031 3.5740625 -34.22851562 3.515625 C-36.19473581 3.37433972 -38.15998824 3.21970094 -40.125 3.0625 C-40.125 2.4025 -40.125 1.7425 -40.125 1.0625 C-26.73594418 0.14486034 -13.41731155 -0.06150471 0 0 Z " fill="black" transform="translate(605.125,665.9375)" />
  <path d="M0 0 C7.86013724 0.66984988 15.38066256 2.30233416 23.0625 4.0625 C24.93325195 4.48499023 24.93325195 4.48499023 26.84179688 4.91601562 C29.89554639 5.60632682 32.9482092 6.30108982 36 7 C33 9 33 9 31 9 C31 8.34 31 7.68 31 7 C30.525625 7.556875 30.05125 8.11375 29.5625 8.6875 C27 10 27 10 25.1171875 9.58398438 C24.39789062 9.31908203 23.67859375 9.05417969 22.9375 8.78125 C22.13836182 8.49531982 21.33922363 8.20938965 20.51586914 7.91479492 C19.68563232 7.6129126 18.85539551 7.31103027 18 7 C16.39622175 6.45979869 14.79075733 5.92457593 13.18359375 5.39453125 C8.7890625 3.9296875 4.39453125 2.46484375 0 1 C0 0.67 0 0.34 0 0 Z " fill="black" transform="translate(708,675)" />
  <path d="M0 0 C4.27407608 0.8248217 8.26841575 2.07764844 12.375 3.5 C17.16455887 5.14667207 22.02027695 6.11633307 27 7 C27 7.66 27 8.32 27 9 C17.04515097 9.81264074 6.71583391 6.67973236 -2 2 C-1.34 1.34 -0.68 0.68 0 0 Z " fill="black" transform="translate(534,613)" />
  <path d="M0 0 C-1.38264145 3.24484969 -2.85509315 4.95333378 -5.66796875 7.05859375 C-6.39693359 7.60966797 -7.12589844 8.16074219 -7.87695312 8.72851562 C-8.63943359 9.29248047 -9.40191406 9.85644531 -10.1875 10.4375 C-10.93064453 10.99759766 -11.67378906 11.55769531 -12.43945312 12.13476562 C-16.91066505 15.49307292 -21.43755747 18.76701092 -26 22 C-26.66 21.67 -27.32 21.34 -28 21 C-5.52898551 0 -5.52898551 0 0 0 Z " fill="black" transform="translate(461,616)" />
  <path d="M0 0 C3 1 3 1 5 3 C-2.28571429 6.42857143 -2.28571429 6.42857143 -7 6 C-7 5.34 -7 4.68 -7 4 C-8.32 3.34 -9.64 2.68 -11 2 C-10.28972656 1.93941406 -9.57945312 1.87882813 -8.84765625 1.81640625 C-7.46900391 1.69072266 -7.46900391 1.69072266 -6.0625 1.5625 C-5.14597656 1.48128906 -4.22945312 1.40007813 -3.28515625 1.31640625 C-1.03840268 1.23955024 -1.03840268 1.23955024 0 0 Z " fill="black" transform="translate(543,530)" />
  <path d="M0 0 C1.670625 0.061875 1.670625 0.061875 3.375 0.125 C3.19140625 2.015625 3.19140625 2.015625 2.375 4.125 C0.08984375 5.171875 0.08984375 5.171875 -2.6875 5.875 C-4.06615234 6.23851562 -4.06615234 6.23851562 -5.47265625 6.609375 C-6.18292969 6.77953125 -6.89320313 6.9496875 -7.625 7.125 C-5.06433824 0.17463235 -5.06433824 0.17463235 0 0 Z " fill="black" transform="translate(541.625,512.875)" />
  <path d="M0 0 C-1.3899131 2.77982621 -3.18658353 2.87463341 -6 4 C-6.33 4.66 -6.66 5.32 -7 6 C-9.97 5.67 -12.94 5.34 -16 5 C-16 4.34 -16 3.68 -16 3 C-13.71068726 2.30364247 -11.4191243 1.61765623 -9.125 0.9375 C-8.47402344 0.73833984 -7.82304688 0.53917969 -7.15234375 0.33398438 C-2.2265625 -1.11328125 -2.2265625 -1.11328125 0 0 Z " fill="black" transform="translate(741,666)" />
  <path d="M0 0 C0.74958984 0.01353516 1.49917969 0.02707031 2.27148438 0.04101562 C4.11879767 0.07631461 5.96574066 0.13012083 7.8125 0.1875 C7.8125 0.5175 7.8125 0.8475 7.8125 1.1875 C5.77178485 1.52660994 3.72987379 1.85852704 1.6875 2.1875 C-0.01792969 2.4659375 -0.01792969 2.4659375 -1.7578125 2.75 C-4.94887602 3.15706049 -7.97567791 3.26559902 -11.1875 3.1875 C-8.45797954 -0.92296361 -4.41882331 -0.15051014 0 0 Z " fill="black" transform="translate(593.1875,666.8125)" />
  <path d="M0 0 C0 0.66 0 1.32 0 2 C0.66 2 1.32 2 2 2 C2 2.66 2 3.32 2 4 C-2.0527516 4.98248524 -5.83861737 5.08159574 -10 5 C-3.63636364 0 -3.63636364 0 0 0 Z " fill="black" transform="translate(515,662)" />
  <path d="M0 0 C-2.31354642 4.74885845 -2.31354642 4.74885845 -5.5625 5.9375 C-6.366875 5.958125 -7.17125 5.97875 -8 6 C-8.66 5.34 -9.32 4.68 -10 4 C-10 3.34 -10 2.68 -10 2 C-8.71211992 1.46987262 -7.41953322 0.9511671 -6.125 0.4375 C-5.40570312 0.14746094 -4.68640625 -0.14257812 -3.9453125 -0.44140625 C-2 -1 -2 -1 0 0 Z " fill="black" transform="translate(553,510)" />
  <path d="M0 0 C-0.33 0.66 -0.66 1.32 -1 2 C-3.14453125 2.484375 -3.14453125 2.484375 -5.8125 2.75 C-6.68519531 2.84796875 -7.55789063 2.9459375 -8.45703125 3.046875 C-11.20801558 2.99616561 -12.67126574 2.41135409 -15 1 C-13.25215171 0.63536268 -11.50159498 0.2836922 -9.75 -0.0625 C-8.28820312 -0.35833984 -8.28820312 -0.35833984 -6.796875 -0.66015625 C-4.131881 -0.98397535 -2.51128277 -0.85503199 0 0 Z " fill="black" transform="translate(852,694)" />
  <path d="M0 0 C0.33 0.66 0.66 1.32 1 2 C-4.41538462 5.07692308 -4.41538462 5.07692308 -7.375 4.6875 C-7.91125 4.460625 -8.4475 4.23375 -9 4 C-9 3.34 -9 2.68 -9 2 C-5.86501708 0.14223235 -3.62528568 -0.20140476 0 0 Z " fill="black" transform="translate(558,509)" />
  <path d="M0 0 C0.99 0.33 1.98 0.66 3 1 C-0.32850747 4.59478807 -3.98971331 7.22364768 -8 10 C-8.66 9.67 -9.32 9.34 -10 9 C-6.7 6.03 -3.4 3.06 0 0 Z " fill="black" transform="translate(443,628)" />
  <path d="M0 0 C2.67456717 0.37792797 3.80611814 0.79766916 5.703125 2.77734375 C6.21359375 3.49019531 6.7240625 4.20304688 7.25 4.9375 C7.77078125 5.64777344 8.2915625 6.35804688 8.828125 7.08984375 C10 9 10 9 10 11 C9.34 11 8.68 11 8 11 C8 10.34 8 9.68 8 9 C7.34 9 6.68 9 6 9 C4.95355934 7.36209288 3.9601817 5.68991979 3 4 C2.01755155 2.65368175 1.02323436 1.31558703 0 0 Z " fill="black" transform="translate(688,677)" />
  <path d="M0 0 C0 0.33 0 0.66 0 1 C-4.51375183 2.22406829 -8.30656376 3.13804224 -13 3 C-13.99 3.495 -13.99 3.495 -15 4 C-16.67654729 3.72057545 -18.34608154 3.39171753 -20 3 C-20 2.67 -20 2.34 -20 2 C-13.25846717 0.74158054 -6.86515862 -0.26404456 0 0 Z " fill="black" transform="translate(536,672)" />
  <path d="M0 0 C-1.5 1.625 -1.5 1.625 -4 3 C-6.83163803 2.65955497 -9.25986036 1.86771089 -12 1 C-7.94041393 -3.05958607 -5.03809833 -1.6159938 0 0 Z " fill="black" transform="translate(554,545)" />
  <path d="M0 0 C-0.33 1.32 -0.66 2.64 -1 4 C-2.98 4 -4.96 4 -7 4 C-7 3.01 -7 2.02 -7 1 C-4.53721199 -0.231394 -2.7204945 -0.07159196 0 0 Z " fill="black" transform="translate(566,537)" />
  <path d="M0 0 C0.66 0.33 1.32 0.66 2 1 C1.43768609 4.93619738 0.38314183 7.79192446 -2 11 C-2.99 11 -3.98 11 -5 11 C-4.34 9.68 -3.68 8.36 -3 7 C-2.34 7 -1.68 7 -1 7 C-0.67 4.69 -0.34 2.38 0 0 Z " fill="black" transform="translate(489,660)" />
  <path d="M0 0 C0 0.99 0 1.98 0 3 C-3.3 2.67 -6.6 2.34 -10 2 C-6.00889681 0.0044484 -4.30013434 -0.19546065 0 0 Z " fill="black" transform="translate(594,669)" />
  <path d="M0 0 C0.66 0 1.32 0 2 0 C0.60667426 3.36720387 -0.9789286 4.9859524 -4 7 C-4.66 6.67 -5.32 6.34 -6 6 C-4 4 -2 2 0 0 Z " fill="black" transform="translate(459,616)" />
  <path d="M0 0 C0.8971875 0.5259375 0.8971875 0.5259375 1.8125 1.0625 C-1.5894487 3.15600689 -4.24022412 3.24192163 -8.1875 3.0625 C-5.67391791 0.30952914 -3.81682031 -1.63578013 0 0 Z " fill="black" transform="translate(536.1875,548.9375)" />
  <path d="M0 0 C1.0625 1.875 1.0625 1.875 2 4 C1.67 4.66 1.34 5.32 1 6 C-2.875 4.25 -2.875 4.25 -4 2 C-2.68 1.34 -1.36 0.68 0 0 Z " fill="black" transform="translate(645,653)" />
  <path d="M0 0 C0 0.99 0 1.98 0 3 C-5.75 2.25 -5.75 2.25 -8 0 C-5.13822943 -1.43088528 -3.06624227 -0.59991697 0 0 Z " fill="black" transform="translate(540,614)" />
  <path d="M0 0 C-0.6875 1.9375 -0.6875 1.9375 -2 4 C-4.625 4.75 -4.625 4.75 -7 5 C-7 4.34 -7 3.68 -7 3 C-2.61538462 0 -2.61538462 0 0 0 Z " fill="black" transform="translate(472,606)" />
  <path d="M0 0 C2.31 0 4.62 0 7 0 C5.33333333 1.66666667 3.66666667 3.33333333 2 5 C1.34 3.35 0.68 1.7 0 0 Z " fill="black" transform="translate(589,621)" />
  <path d="M0 0 C0 0.66 0 1.32 0 2 C1.32 2.33 2.64 2.66 4 3 C1.69 3.33 -0.62 3.66 -3 4 C-3 3.34 -3 2.68 -3 2 C-3.66 1.67 -4.32 1.34 -5 1 C-2 0 -2 0 0 0 Z " fill="black" transform="translate(559,539)" />
  <path d="M0 0 C1.65 1.32 3.3 2.64 5 4 C2.36 4.33 -0.28 4.66 -3 5 C-2.01 3.35 -1.02 1.7 0 0 Z " fill="black" transform="translate(522,537)" />
  <path d="M0 0 C0.66 0.66 1.32 1.32 2 2 C-0.25 2.6875 -0.25 2.6875 -3 3 C-5.3125 1.5625 -5.3125 1.5625 -7 0 C-3.98968256 -0.93423645 -3.13349732 -1.04449911 0 0 Z " fill="black" transform="translate(546,531)" />
</mask>
</defs>
<g mask="url(#cutoutMask)">
  <path d="M0 0 C1.19022728 1.0146623 2.35792028 2.05643345 3.5 3.125 C4.11230469 3.65996094 4.72460938 4.19492187 5.35546875 4.74609375 C9.89809984 8.94003674 14.95735335 14.70329068 15.73852539 21.06860352 C16.87545822 24.13894185 18.74926318 24.69293559 21.62890625 26.140625 C23.18061523 26.93339844 23.18061523 26.93339844 24.76367188 27.7421875 C25.85228516 28.28101563 26.94089844 28.81984375 28.0625 29.375 C29.15498047 29.92929687 30.24746094 30.48359375 31.37304688 31.0546875 C34.07606189 32.42390034 36.78490353 33.77994697 39.5 35.125 C39.17 36.445 38.84 37.765 38.5 39.125 C35.29279138 39.6323957 32.08407837 40.129579 28.875 40.625 C27.97136719 40.76808594 27.06773437 40.91117187 26.13671875 41.05859375 C21.54560134 41.76234167 17.16168185 42.31084778 12.5 42.125 C12.09587891 43.19621094 12.09587891 43.19621094 11.68359375 44.2890625 C10.48518193 47.16050469 9.08841396 49.78985257 7.5625 52.5 C0.51225759 65.36540585 -0.73377529 76.86163075 -0.90481567 91.31066895 C-1.37553651 125.54187493 -8.88038396 157.43316866 -31.5 184.125 C-32.34175781 185.13046875 -33.18351562 186.1359375 -34.05078125 187.171875 C-50.25124105 205.97533003 -73.47508849 220.96582677 -98.5 224.125 C-101.17810075 224.23696073 -103.81732686 224.17125299 -106.5 224.125 C-102.49716841 230.86949706 -97.58154878 236.66533406 -92.39746094 242.51025391 C-88.44380126 246.97650884 -84.80537537 251.57556647 -81.37890625 256.46484375 C-79.55147732 258.40242708 -79.55147732 258.40242708 -76.6015625 258.43359375 C-65.62357872 257.34132584 -58.78172219 253.50360593 -51.5 245.125 C-46.48435671 238.92802391 -42.17124458 232.2447931 -37.9375 225.5 C-22.34519636 200.75490559 -0.77296227 181.9941728 28.22998047 175.2097168 C46.08680367 171.77663195 66.9513109 171.85065545 83.5 180.125 C82.13944373 183.34521108 80.85693648 184.80608538 77.9375 186.6875 C73.3924585 189.94450627 70.23391499 193.89468448 66.78125 198.2578125 C46.43349478 223.83187471 21.06441636 237.29063863 -11.0625 242.0625 C-26.83404306 244.45139085 -38.84182009 250.07736896 -52.5 258.125 C-52.5 258.785 -52.5 259.445 -52.5 260.125 C-50.99499225 261.63000775 -49.54507386 261.44353672 -47.44604492 261.66577148 C-46.58391891 261.75934433 -45.72179291 261.85291718 -44.83354187 261.94932556 C-43.89202774 262.04725906 -42.95051361 262.14519257 -41.98046875 262.24609375 C-41.01152176 262.35091568 -40.04257477 262.45573761 -39.04426575 262.56373596 C-35.92577381 262.90081231 -32.80671664 263.23220174 -29.6875 263.5625 C3.4015144 267.0757572 3.4015144 267.0757572 7.5 269.125 C19.36385872 270.41454986 30.7871773 263.74723753 39.73046875 256.57421875 C44.51621628 252.63565918 49.14038056 248.59694871 53.4375 244.125 C69.94802654 227.16165311 92.26690528 213.45774606 116.38061523 212.70092773 C129.00526358 212.62744317 140.09006982 214.54454374 150.5 222.125 C151.16 222.785 151.82 223.445 152.5 224.125 C152.125 226.75 152.125 226.75 151.5 229.125 C150.75242432 229.33479492 150.00484863 229.54458984 149.23461914 229.76074219 C131.01334731 234.94973772 114.40487366 241.45621398 97.5 250.125 C80.92240605 258.56929125 64.06496136 264.25661022 45.94140625 268.50390625 C43.42317565 269.14454411 41.01214669 269.94815312 38.5625 270.8125 C35.42977871 271.90610452 32.85698028 272.44986906 29.5 272.125 C29.5 272.785 29.5 273.445 29.5 274.125 C30.09643311 274.16890869 30.69286621 274.21281738 31.30737305 274.25805664 C37.81272568 274.8127375 43.98018401 275.99879634 50.3125 277.5625 C51.22708984 277.77970703 52.14167969 277.99691406 53.08398438 278.22070312 C57.38496772 279.26232309 61.40287666 280.44125068 65.5 282.125 C67.72069681 282.68083908 69.95072903 283.20035832 72.1875 283.6875 C78.29476861 285.02238431 78.29476861 285.02238431 80.5 286.125 C88.81057692 287.19676573 94.84683249 284.84923295 101.46484375 279.9140625 C103.09952748 278.63428549 104.72599471 277.34447964 106.3527832 276.0546875 C125.65433245 260.92276245 147.31064942 256.96521112 171.38671875 259.5859375 C183.63105989 261.22793371 194.29869486 265.05433491 204.5 272.125 C204.26953125 274.02734375 204.26953125 274.02734375 203.5 276.125 C201.69921875 277.00390625 201.69921875 277.00390625 199.1875 277.6875 C193.23498396 279.62516798 188.0967133 282.47413675 182.6875 285.5625 C168.18120364 293.7523867 154.15413019 298.51463215 137.375 298.375 C136.43785156 298.38273437 135.50070312 298.39046875 134.53515625 298.3984375 C129.58688856 298.38459619 125.2208845 297.9891198 120.46533203 296.6328125 C116.86918022 295.70362048 113.18678803 295.38976442 109.5 295 C108.33791016 294.87044922 108.33791016 294.87044922 107.15234375 294.73828125 C105.26876279 294.52899448 103.38445192 294.32629373 101.5 294.125 C113.91160495 298.69548966 125.52759442 300.60602064 138.6875 300.75 C164.45855276 301.09055528 182.88068318 306.83795907 201.5 325.125 C203.92548466 327.72119325 206.27327838 330.36140963 208.58984375 333.0546875 C211.00477129 335.67209362 213.41147751 337.38275654 216.5 339.125 C216.17 340.115 215.84 341.105 215.5 342.125 C193.65637475 350.81016483 166.78146906 347.32149716 145.5625 338.515625 C128.65891859 330.84001915 114.96596579 319.56839417 101.05029297 307.47070312 C98.78013153 305.50013149 96.49837623 303.54776296 94.1875 301.625 C93.49011719 301.0371875 92.79273438 300.449375 92.07421875 299.84375 C85.78721837 295.64605627 78.79572233 293.44080509 71.49609375 291.72265625 C70.66255371 291.51957352 69.82901367 291.31649078 68.97021484 291.10725403 C66.2947098 290.45838064 63.61634395 289.82243414 60.9375 289.1875 C59.09570722 288.74462468 57.25399202 288.30142658 55.41235352 287.85791016 C42.16102552 284.68330274 28.87578357 281.73156295 15.5 279.125 C16.62535156 279.4653125 17.75070312 279.805625 18.91015625 280.15625 C34.37930351 284.97817659 47.43953738 291.08034969 59.5 302.125 C60.35207031 302.89585937 61.20414063 303.66671875 62.08203125 304.4609375 C77.67339803 319.2619585 88.0044659 340.00656325 98.25 358.6875 C102.75581143 366.89746884 108.09719469 374.48718805 113.5 382.125 C115.5 385.125 115.5 385.125 115.5 388.125 C107.06521145 392.34239428 93.23825015 388.57056226 84.82226562 385.91308594 C63.48660189 378.67259787 44.97331011 368.79464907 30.5 351.125 C29.33534305 349.83152094 28.16863599 348.5398852 27 347.25 C19.40730658 338.46562824 15.0179025 330.22593678 11.5 319.125 C10.96020455 317.52020271 10.41882302 315.91593693 9.875 314.3125 C9.41659727 312.91668945 8.95826237 311.52085663 8.5 310.125 C8.25507812 309.40054687 8.01015625 308.67609375 7.7578125 307.9296875 C7.50773437 307.18976563 7.25765625 306.44984375 7 305.6875 C6.74734375 304.945 6.4946875 304.2025 6.234375 303.4375 C5.73633711 301.86921047 5.28971026 300.28384105 4.890625 298.6875 C2.50838585 289.39095698 -1.68378285 282.30848236 -10 277.1875 C-21.08540947 271.62740515 -35.16214028 271.96273098 -47.32150269 271.25228882 C-48.79626903 271.16611875 -50.27081948 271.07618531 -51.74514771 270.9828186 C-67.742745 269.98243169 -83.73331043 270.003038 -99.75567627 270.05633545 C-103.23619966 270.066767 -106.71673094 270.07117447 -110.19726562 270.07617188 C-116.96486226 270.08673508 -123.73242887 270.10368504 -130.5 270.125 C-130.5 270.785 -130.5 271.445 -130.5 272.125 C-129.8908374 272.09889648 -129.2816748 272.07279297 -128.65405273 272.04589844 C-120.14333166 271.84890186 -111.93844206 273.03864292 -103.5625 274.375 C-102.09025377 274.60548865 -100.61800439 274.83595723 -99.14575195 275.06640625 C-66.09235962 280.2862638 -66.09235962 280.2862638 -54.5 286.125 C-53.10587891 286.80369141 -53.10587891 286.80369141 -51.68359375 287.49609375 C-31.90471152 297.64686919 -19.35523307 313.50996869 -10.875 333.6875 C-3.3851368 351.26727892 4.65946893 366.76653715 19.9375 378.875 C20.783125 379.6175 21.62875 380.36 22.5 381.125 C22.5 382.115 22.5 383.105 22.5 384.125 C17.36456925 386.689385 13.45786793 387.55046308 7.6875 387.0625 C6.95829346 387.00868164 6.22908691 386.95486328 5.4777832 386.89941406 C-25.42859323 384.19786533 -51.55998257 368.26942405 -73.5 347.125 C-74.35207031 346.34769531 -75.20414063 345.57039063 -76.08203125 344.76953125 C-86.59531704 334.88538697 -93.77340239 322.54603818 -100.93701172 310.15039062 C-110.17581717 294.26185813 -119.58568102 283.51672302 -137.296875 277.703125 C-154.91963345 273.07871321 -174.01867272 276.61395118 -191.5 280.125 C-192.97267334 280.41383057 -192.97267334 280.41383057 -194.47509766 280.70849609 C-229.33306822 286.47006119 -229.33306822 286.47006119 -259.5 302.125 C-261.14230364 302.2495486 -262.79052276 302.30068524 -264.4375 302.3125 C-265.33339844 302.32667969 -266.22929687 302.34085938 -267.15234375 302.35546875 C-269.5 302.125 -269.5 302.125 -271.5 300.125 C-272 297.8125 -272 297.8125 -271.5 295.125 C-266.88665574 290.54122846 -262.05337869 288.39758884 -256 286.1875 C-255.08726318 285.84759033 -254.17452637 285.50768066 -253.23413086 285.1574707 C-246.59017267 282.74339158 -239.8794026 280.67794818 -233.0625 278.8125 C-232.14194824 278.55782959 -231.22139648 278.30315918 -230.27294922 278.04077148 C-226.27680941 276.97434346 -222.40835941 276.03406645 -218.28515625 275.65234375 C-212.07928871 275.12547196 -212.07928871 275.12547196 -207.21289062 271.60009766 C-204.30352399 267.07586642 -202.34250461 262.15923488 -200.5 257.125 C-197.27842158 248.47823562 -192.99125972 241.49510343 -187.5 234.125 C-187.00628906 233.44308594 -186.51257813 232.76117187 -186.00390625 232.05859375 C-181.26877366 226.00268234 -173.86521722 219.41383179 -166.45703125 217.2265625 C-162.99519829 217.10766203 -161.26502404 217.82510367 -158.1875 219.375 C-150.5552706 222.83019591 -142.72497049 223.92633724 -134.5 225.125 C-144.50511827 238.90494311 -155.71661008 250.70005542 -170.5 259.3125 C-171.35078125 259.81974609 -172.2015625 260.32699219 -173.078125 260.84960938 C-178.12277612 263.83229804 -183.22715172 266.5679127 -188.5 269.125 C-182.72601317 268.66674708 -177.18059407 267.88138005 -171.5 266.75 C-160.7487098 264.67421758 -149.8046243 263.99583608 -138.90429688 263.12744141 C-138.16892197 263.06768127 -137.43354706 263.00792114 -136.67588806 262.9463501 C-134.64371116 262.78220577 -132.61105021 262.62408689 -130.57836914 262.46630859 C-127.59129987 262.31478572 -127.59129987 262.31478572 -125.5 261.125 C-123.4625237 260.89641886 -121.41959697 260.71475722 -119.375 260.5625 C-117.73144531 260.43681641 -117.73144531 260.43681641 -116.0546875 260.30859375 C-115.21164062 260.24800781 -114.36859375 260.18742187 -113.5 260.125 C-115.20653624 250.94862531 -117.60648237 242.2055266 -120.51806641 233.34838867 C-120.77378418 232.56826416 -121.02950195 231.78813965 -121.29296875 230.984375 C-121.5252417 230.28795898 -121.75751465 229.59154297 -121.99682617 228.87402344 C-122.5 227.125 -122.5 227.125 -122.5 225.125 C-123.180625 225.09921875 -123.86125 225.0734375 -124.5625 225.046875 C-139.78131573 224.15641238 -153.75594876 219.20933049 -168.00805664 214.12304688 C-182.35217272 209.13885398 -197.19169604 211.2286139 -211.5 216.125 C-217.48776791 219.24709108 -222.36448114 223.7182921 -227.3359375 228.22998047 C-231.0134075 231.45025598 -234.9762068 234.26731655 -238.9375 237.125 C-240.52282445 238.28421453 -242.10745884 239.44437335 -243.69140625 240.60546875 C-244.48047363 241.18216309 -245.26954102 241.75885742 -246.08251953 242.35302734 C-248.54920915 244.16106948 -251.00807175 245.9792899 -253.46484375 247.80078125 C-271.64218336 261.27339766 -271.64218336 261.27339766 -280.5 267.125 C-281.76070313 267.96224609 -281.76070313 267.96224609 -283.046875 268.81640625 C-286.80751235 271.13210072 -288.87629047 272.11494017 -293.375 272.1875 C-296.5 271.125 -296.5 271.125 -298.375 269.5625 C-299.93758896 266.17689058 -300.96868011 262.83483412 -300.5 259.125 C-297.87145503 254.29207625 -294.48518199 251.21684538 -290.125 248 C-285.11050741 244.18645732 -280.24916414 240.26441976 -275.5 236.125 C-270.40964029 231.70782192 -265.21210614 227.47477842 -259.890625 223.33984375 C-255.37643932 219.82881045 -250.9291825 216.24254664 -246.5 212.625 C-240.95991875 208.10446374 -235.38038639 203.6419557 -229.74511719 199.24072266 C-224.55526146 195.18382166 -219.41783486 191.06285402 -214.29663086 186.91967773 C-209.71735214 183.23367607 -209.71735214 183.23367607 -207.5 182.125 C-206.6812219 180.35549138 -206.6812219 180.35549138 -205.9375 178.125 C-197.81225594 157.159498 -184.6796308 137.56137374 -170.90673828 119.92871094 C-169.52872653 118.16183298 -168.16623627 116.38412367 -166.80859375 114.6015625 C-164.38999869 111.42878188 -161.94932503 108.27413218 -159.5 105.125 C-158.82453125 104.25359375 -158.1490625 103.3821875 -157.453125 102.484375 C-153.14730781 97.00737553 -148.58447437 91.82941832 -143.86328125 86.70703125 C-141.90435897 84.56678723 -140.004805 82.39661391 -138.125 80.1875 C-135.06983796 76.67731383 -131.84323893 73.36011832 -128.5625 70.0625 C-128.08441895 69.57982666 -127.60633789 69.09715332 -127.11376953 68.59985352 C-121.15151964 62.66263826 -114.76119938 57.29765501 -108.15820312 52.09179688 C-100.64646205 46.11639379 -94.55999442 40.37720567 -89.5 32.125 C-88.02920297 29.76552467 -86.54862414 27.41234902 -85.0625 25.0625 C-84.49994507 24.17099243 -84.49994507 24.17099243 -83.92602539 23.26147461 C-80.33791674 17.67783205 -76.18618502 12.82810265 -71.5 8.125 C-70.88898438 7.49078125 -70.27796875 6.8565625 -69.6484375 6.203125 C-52.1082325 -10.66532747 -20.18499877 -14.27532232 0 0 Z " fill="#7c9a6d" transform="translate(695.5,396.875)" />
  <path d="M0 0 C1.19022728 1.0146623 2.35792028 2.05643345 3.5 3.125 C4.11230469 3.65996094 4.72460938 4.19492187 5.35546875 4.74609375 C9.89809984 8.94003674 14.95735335 14.70329068 15.73852539 21.06860352 C16.87545822 24.13894185 18.74926318 24.69293559 21.62890625 26.140625 C23.18061523 26.93339844 23.18061523 26.93339844 24.76367188 27.7421875 C25.85228516 28.28101563 26.94089844 28.81984375 28.0625 29.375 C29.15498047 29.92929687 30.24746094 30.48359375 31.37304688 31.0546875 C34.07606189 32.42390034 36.78490353 33.77994697 39.5 35.125 C39.17 36.445 38.84 37.765 38.5 39.125 C35.31256234 39.60458192 32.12503862 40.08358959 28.9375 40.5625 C28.04224609 40.69720703 27.14699219 40.83191406 26.22460938 40.97070312 C24.46399283 41.23511806 22.70292843 41.49657004 20.94140625 41.75488281 C19.4202183 41.98549491 17.90125929 42.23207609 16.38671875 42.50292969 C11.80124997 43.29527172 11.80124997 43.29527172 8.625 41.5 C5.57086385 38.08655371 5.5 35.57592798 5.5 31.125 C4.49582031 31.51171875 3.49164062 31.8984375 2.45703125 32.296875 C-6.97403661 35.89932494 -16.43191002 39.18514465 -26.17578125 41.859375 C-37.09561164 44.9162482 -45.10291047 49.36074412 -52.5 58.125 C-53.24507812 58.9809375 -53.99015625 59.836875 -54.7578125 60.71875 C-57.25720113 65.60544706 -56.76243541 69.80059904 -56.5 75.1875 C-56.28518189 84.38935634 -56.7209531 91.61342361 -60.5 100.125 C-60.97050781 101.19234375 -61.44101562 102.2596875 -61.92578125 103.359375 C-64.52466646 108.86605683 -67.17750709 113.80250709 -71.5 118.125 C-72.16 118.125 -72.82 118.125 -73.5 118.125 C-73.25507812 118.85074219 -73.01015625 119.57648438 -72.7578125 120.32421875 C-72.5 123.125 -72.5 123.125 -74.0546875 125.51953125 C-76.51298962 128.08129726 -78.97401753 130.62968196 -81.5 133.125 C-82.17417969 133.80949219 -82.84835937 134.49398437 -83.54296875 135.19921875 C-90.36460396 141.7041823 -98.42278332 146.36620456 -106.5 151.125 C-107.22429199 151.55635254 -107.94858398 151.98770508 -108.69482422 152.43212891 C-118.94254152 158.49553164 -129.27637349 163.36217042 -140.47802734 167.39550781 C-142.47600143 168.11634174 -144.46529926 168.85714553 -146.453125 169.60546875 C-147.11199707 169.85272705 -147.77086914 170.09998535 -148.44970703 170.35473633 C-149.84959658 170.8806534 -151.24898979 171.40789305 -152.64794922 171.9362793 C-154.96851033 172.80553908 -157.29528168 173.65560018 -159.625 174.5 C-160.90141357 174.97203857 -160.90141357 174.97203857 -162.20361328 175.45361328 C-166.95316945 177.13749191 -171.49111854 178.37441 -176.484375 179.09375 C-186.09403474 180.00050148 -186.09403474 180.00050148 -193.93017578 184.82226562 C-196.10253443 189.00214822 -196.99388659 193.44771595 -197.94287109 198.02929688 C-199.25421468 202.96206345 -202.55311952 207.0388616 -205.5 211.125 C-206.16 212.115 -206.82 213.105 -207.5 214.125 C-209.14411009 215.16166763 -210.81353895 216.15875629 -212.5 217.125 C-213.98853936 218.20189677 -215.45964804 219.30322406 -216.9140625 220.42578125 C-217.74760254 221.06596191 -218.58114258 221.70614258 -219.43994141 222.36572266 C-220.32601074 223.04940918 -221.21208008 223.7330957 -222.125 224.4375 C-231.38050081 231.53450817 -240.7254983 238.49473845 -250.13525391 245.38525391 C-252.57091664 247.17717344 -254.99553943 248.98320679 -257.41796875 250.79296875 C-286.18239695 272.24140712 -286.18239695 272.24140712 -293.0625 272 C-296.5 271.125 -296.5 271.125 -298.375 269.5625 C-299.93758896 266.17689058 -300.96868011 262.83483412 -300.5 259.125 C-297.87145503 254.29207625 -294.48518199 251.21684538 -290.125 248 C-285.11050741 244.18645732 -280.24916414 240.26441976 -275.5 236.125 C-270.40964029 231.70782192 -265.21210614 227.47477842 -259.890625 223.33984375 C-255.37643932 219.82881045 -250.9291825 216.24254664 -246.5 212.625 C-240.95991875 208.10446374 -235.38038639 203.6419557 -229.74511719 199.24072266 C-224.55526146 195.18382166 -219.41783486 191.06285402 -214.29663086 186.91967773 C-209.71735214 183.23367607 -209.71735214 183.23367607 -207.5 182.125 C-206.6812219 180.35549138 -206.6812219 180.35549138 -205.9375 178.125 C-197.81225594 157.159498 -184.6796308 137.56137374 -170.90673828 119.92871094 C-169.52872653 118.16183298 -168.16623627 116.38412367 -166.80859375 114.6015625 C-164.38999869 111.42878188 -161.94932503 108.27413218 -159.5 105.125 C-158.82453125 104.25359375 -158.1490625 103.3821875 -157.453125 102.484375 C-153.14730781 97.00737553 -148.58447437 91.82941832 -143.86328125 86.70703125 C-141.90435897 84.56678723 -140.004805 82.39661391 -138.125 80.1875 C-135.06983796 76.67731383 -131.84323893 73.36011832 -128.5625 70.0625 C-128.08441895 69.57982666 -127.60633789 69.09715332 -127.11376953 68.59985352 C-121.15151964 62.66263826 -114.76119938 57.29765501 -108.15820312 52.09179688 C-100.64646205 46.11639379 -94.55999442 40.37720567 -89.5 32.125 C-88.02920297 29.76552467 -86.54862414 27.41234902 -85.0625 25.0625 C-84.49994507 24.17099243 -84.49994507 24.17099243 -83.92602539 23.26147461 C-80.33791674 17.67783205 -76.18618502 12.82810265 -71.5 8.125 C-70.88898438 7.49078125 -70.27796875 6.8565625 -69.6484375 6.203125 C-52.1082325 -10.66532747 -20.18499877 -14.27532232 0 0 Z " fill="#ffffff" transform="translate(695.5,396.875)" />
  <path d="M0 0 C-1.36055627 3.22021108 -2.64306352 4.68108538 -5.5625 6.5625 C-10.1075415 9.81950627 -13.26608501 13.76968448 -16.71875 18.1328125 C-37.06724683 43.70780681 -62.43522768 57.1639279 -94.5625 61.9375 C-105.57244059 63.61022305 -114.84744503 65.9016949 -124.4921875 71.6484375 C-125.28890869 72.11620605 -126.08562988 72.58397461 -126.90649414 73.06591797 C-128.47588111 74.00133949 -130.02856275 74.96555356 -131.56030273 75.96142578 C-136.88432176 79.18770612 -136.88432176 79.18770612 -140.32177734 78.609375 C-142.54296875 77.78125 -142.54296875 77.78125 -146 76 C-145.2678125 75.26910156 -144.535625 74.53820312 -143.78125 73.78515625 C-142.8634375 72.86605469 -141.945625 71.94695312 -141 71 C-140.2678125 70.27683594 -139.535625 69.55367187 -138.78125 68.80859375 C-131.73800862 61.48796444 -126.53196237 53.34906239 -121.08984375 44.8125 C-105.46270599 20.33362687 -84.06325268 1.8201169 -55.27001953 -4.9152832 C-37.41319633 -8.34836805 -16.5486891 -8.27434455 0 0 Z " fill="#7c9a6d" transform="translate(779,577)" />
  <path d="M0 0 C2.39774745 -0.13572155 4.78775245 -0.23436868 7.1875 -0.3125 C8.19780273 -0.3753418 8.19780273 -0.3753418 9.22851562 -0.43945312 C13.03728036 -0.53234983 14.7387199 -0.21119207 17.73046875 2.20703125 C18.47941406 3.12871094 19.22835937 4.05039062 20 5 C20.68320312 5.804375 21.36640625 6.60875 22.0703125 7.4375 C23.08738281 8.7059375 23.08738281 8.7059375 24.125 10 C28.10664707 14.92361391 32.1685521 19.76980048 36.28173828 24.58398438 C38.16208002 26.79226871 39.98702783 28.98155137 41.65625 31.35546875 C42.92923843 33.29216871 42.92923843 33.29216871 45.625 33.375 C48.34767175 33.07248092 50.73428209 32.59767948 53.375 31.9375 C58.01529794 30.85163903 61.33914641 30.9124675 66 32 C67.70250393 33.28725907 69.37064759 34.62131719 71 36 C73.3181288 36.88147335 75.57718946 37.42992693 78 38 C78 38.33 78 38.66 78 39 C76.35 39.33 74.7 39.66 73 40 C72.67 40.99 72.34 41.98 72 43 C69.50638429 41.79618552 67.31856917 40.54571278 65 39 C62.37468476 38.83286431 62.37468476 38.83286431 60 39 C60.495 39.45375 60.99 39.9075 61.5 40.375 C63 42 63 42 63 44 C68.28 44 73.56 44 79 44 C79 44.33 79 44.66 79 45 C50.29 45 21.58 45 -8 45 C-8 44.67 -8 44.34 -8 44 C-7.10796875 43.93941406 -6.2159375 43.87882813 -5.296875 43.81640625 C-4.12640625 43.73261719 -2.9559375 43.64882813 -1.75 43.5625 C-0.58984375 43.48128906 0.5703125 43.40007813 1.765625 43.31640625 C4.32567884 43.0659662 6.53465371 42.6585193 9 42 C9.32022324 34.97643701 8.27364206 29.37088104 6.1875 22.6875 C5.63523837 20.84419288 5.08444897 19.00044401 4.53515625 17.15625 C4.26977051 16.27453125 4.00438477 15.3928125 3.73095703 14.484375 C2.32257506 9.69756975 1.14607408 4.85573491 0 0 Z " fill="#ffffff" transform="translate(573,622)" />
  <path d="M0 0 C0.7331543 0.16975342 1.46630859 0.33950684 2.22167969 0.5144043 C6.05719831 1.43473603 9.59049349 2.57524693 13.25 4.0625 C15.0115128 4.47909135 16.78313133 4.85535118 18.5625 5.1875 C19.44550781 5.35507812 20.32851563 5.52265625 21.23828125 5.6953125 C21.90214844 5.81648437 22.56601562 5.93765625 23.25 6.0625 C23.25 9.0625 23.25 9.0625 22.25 12.0625 C17.57786121 13.1186219 14.29652957 12.87933744 9.671875 11.69921875 C8.42792969 11.38919922 7.18398438 11.07917969 5.90234375 10.75976562 C4.60143168 10.42368307 3.30065098 10.0870916 2 9.75 C-0.54642707 9.10629833 -3.09329486 8.46433732 -5.640625 7.82421875 C-6.84912109 7.51919434 -8.05761719 7.21416992 -9.30273438 6.89990234 C-13.76077729 5.81696416 -18.23900523 4.89461884 -22.75 4.0625 C-23.875 0.3125 -23.875 0.3125 -22.75 -1.9375 C-15.49742546 -4.4305725 -7.20834607 -1.67309183 0 0 Z " fill="#7c9a6d" transform="translate(747.75,674.9375)" />
  <path d="M0 0 C0.99 0.33 1.98 0.66 3 1 C-2.61 6.61 -8.22 12.22 -14 18 C-14.66 17.34 -15.32 16.68 -16 16 C-10.72 10.72 -5.44 5.44 0 0 Z " fill="#ffffff" transform="translate(573,461)" />
  <path d="M0 0 C-1.5778125 0.433125 -1.5778125 0.433125 -3.1875 0.875 C-6.87060901 1.87865345 -6.87060901 1.87865345 -9.75 3.1875 C-12 4 -12 4 -15 3 C-15 2.34 -15 1.68 -15 1 C-13.25559202 0.44058641 -11.50414743 -0.09691897 -9.75 -0.625 C-8.77546875 -0.92664063 -7.8009375 -1.22828125 -6.796875 -1.5390625 C-3.68321539 -2.05220752 -2.58430745 -1.71056541 0 0 Z " fill="#ffffff" transform="translate(538,540)" />
  <path d="M0 0 C0.99 0.33 1.98 0.66 3 1 C1.76110404 2.48847937 0.5084328 3.96550105 -0.75 5.4375 C-1.79414062 6.67306641 -1.79414062 6.67306641 -2.859375 7.93359375 C-5.01343015 10.01296451 -6.08310781 10.63867326 -9 11 C-8.06558465 9.72689688 -7.12732889 8.456612 -6.1875 7.1875 C-5.66542969 6.47980469 -5.14335938 5.77210938 -4.60546875 5.04296875 C-3.16871123 3.21468607 -1.68184237 1.60103312 0 0 Z " fill="#ffffff" transform="translate(552,483)" />
  <path d="M0 0 C2.04159095 -0.0272616 4.08328963 -0.04651345 6.125 -0.0625 C7.26195312 -0.07410156 8.39890625 -0.08570313 9.5703125 -0.09765625 C12.8129156 -0.005327 15.81932612 0.38610094 19 1 C19 1.33 19 1.66 19 2 C13.06 2.495 13.06 2.495 7 3 C7 2.67 7 2.34 7 2 C4.69 1.67 2.38 1.34 0 1 C0 0.67 0 0.34 0 0 Z " fill="#7c9a6d" transform="translate(837,698)" />
  <path d="M0 0 C0.66 0.66 1.32 1.32 2 2 C-2.455 4.97 -2.455 4.97 -7 8 C-7.66 7.67 -8.32 7.34 -9 7 C-6.03 4.69 -3.06 2.38 0 0 Z " fill="#7c9a6d" transform="translate(767,626)" />
  <path d="M0 0 C3.81684226 1.55500981 6.19195732 4.03595495 9 7 C8.67 7.66 8.34 8.32 8 9 C6.66079162 7.88200014 5.32877444 6.75538103 4 5.625 C2.88625 4.68527344 2.88625 4.68527344 1.75 3.7265625 C1.1725 3.15679688 0.595 2.58703125 0 2 C0 1.34 0 0.68 0 0 Z " fill="#7c9a6d" transform="translate(733,754)" />
  <path d="M0 0 C1 4 1 4 -0.4375 6.75 C-1.2109375 7.86375 -1.2109375 7.86375 -2 9 C-2.99 8.67 -3.98 8.34 -5 8 C-3.35 5.36 -1.7 2.72 0 0 Z " fill="#ffffff" transform="translate(614,416)" />
  <path d="M0 0 C0.66 0 1.32 0 2 0 C2.38922918 1.28745036 2.76098036 2.58019597 3.125 3.875 C3.33382813 4.59429688 3.54265625 5.31359375 3.7578125 6.0546875 C3.83773438 6.69664062 3.91765625 7.33859375 4 8 C3.34 8.66 2.68 9.32 2 10 C0.39644899 6.49223216 -0.22036864 3.85645121 0 0 Z " fill="#ffffff" transform="translate(395,656)" />
</g>
</svg>